<svg t="1666582584345" class="icon" viewBox="0 0 1024 1024" version="1.1" xmlns="http://www.w3.org/2000/svg" p-id="11081" width="128" height="128"><path d="M206.935452 206.935452a50.844091 50.844091 0 0 0-50.844092 50.844091v508.440914a50.844091 50.844091 0 0 0 50.844092 50.844091h610.129096a50.844091 50.844091 0 0 0 50.844092-50.844091v-508.440914a50.844091 50.844091 0 0 0-50.844092-50.844091z m0-101.688183h610.129096a152.532274 152.532274 0 0 1 152.532274 152.532274v508.440914a152.532274 152.532274 0 0 1-152.532274 152.532274h-610.129096a152.532274 152.532274 0 0 1-152.532274-152.532274v-508.440914a152.532274 152.532274 0 0 1 152.532274-152.532274z"  p-id="11082"></path><path d="M651.821251 559.285005l-162.701092 108.297915a50.844091 50.844091 0 0 1-78.808342-42.200596V410.311817a50.844091 50.844091 0 0 1 78.808342-42.200596l162.701092 108.297915a50.844091 50.844091 0 0 1 0 84.401192z" fill="#666666" p-id="11083"></path></svg>