<svg t="1666582637890" class="icon" viewBox="0 0 1024 1024" version="1.1" xmlns="http://www.w3.org/2000/svg" p-id="12907" width="128" height="128"><path d="M320.06 255.58m28 0l328.07 0q28 0 28 28l0 0q0 28-28 28l-328.07 0q-28 0-28-28l0 0q0-28 28-28Z" p-id="12908"></path><path d="M320.06 420.21m28 0l200.42 0q28 0 28 28l0 0q0 28-28 28l-200.42 0q-28 0-28-28l0 0q0-28 28-28Z" p-id="12909"></path><path d="M888.35 320h-56.19V135.61a72 72 0 0 0-72-72H264a72 72 0 0 0-72 72V320h-55.79a72 72 0 0 0-72 72v496.22a72 72 0 0 0 72 72h752.14a72 72 0 0 0 72-72V392a72 72 0 0 0-72-72z m0 72v47.59c-0.53 0.27-1.05 0.56-1.57 0.86L832.16 472v-80zM264 135.61h496.16v377l-151.33 88.31-96.55 55.74L264 513.33V135.61zM192 392v79.77l-55.83-32.24V392z m-55.79 496.22V522.67l56.2 32.45 298 173A43 43 0 0 0 502 732.7a35.88 35.88 0 0 0 9.52 1.51h1.61a35.58 35.58 0 0 0 11.65-2.21 42.58 42.58 0 0 0 9-3.94L645 663.17l243.35-140.5v365.55z" p-id="12910"></path></svg>